<svg id="レイヤー_2" data-name="レイヤー 2" xmlns="http://www.w3.org/2000/svg" viewBox="0 0 752.56 112.12"><defs><style>.cls-1,.cls-11,.cls-5,.cls-8{fill:none;}.cls-1,.cls-10,.cls-11,.cls-12,.cls-3,.cls-5,.cls-6,.cls-7,.cls-8,.cls-9{stroke:#231815;stroke-miterlimit:10;}.cls-1,.cls-5,.cls-8{stroke-linecap:round;}.cls-1,.cls-3{stroke-width:0.7px;}.cls-2{fill:#f8f399;}.cls-3,.cls-6,.cls-7,.cls-9{fill:#f8b62d;}.cls-4{fill:#231815;}.cls-5,.cls-7{stroke-width:0.76px;}.cls-6{stroke-width:0.94px;}.cls-8,.cls-9{stroke-width:0.68px;}.cls-10,.cls-12,.cls-13{fill:#fff;}.cls-10{stroke-width:0.29px;}.cls-11,.cls-12{stroke-width:0.1px;}</style></defs><line class="cls-1" x1="280.33" y1="108.74" x2="284.68" y2="101.63"/><path class="cls-2" d="M295.36,58.52s17.78.2,19.95,1.19,5.14,9.88,4.74,14-3.36,21.94-24.69,26.68-21.34,3.16-34-8.5-16-64.8,8.7-64.41C298.12,27.5,295.36,58.52,295.36,58.52Z" transform="translate(0.78 0.24)"/><path class="cls-3" d="M248.33,37.58l-9.88,6.52,9.88,7.31s-1.58-4.55-1.38-6.92A57.9,57.9,0,0,1,248.33,37.58Z" transform="translate(0.78 0.24)"/><path class="cls-3" d="M280.93,72.75h15.61S295.36,83,291.21,83.42C283.3,83.42,280.93,72.75,280.93,72.75Z" transform="translate(0.78 0.24)"/><circle class="cls-4" cx="265.71" cy="46.7" r="2.07"/><line class="cls-1" x1="290.61" y1="100.64" x2="293.57" y2="107.36"/><line class="cls-5" x1="37.71" y1="111.13" x2="43.47" y2="104.22"/><path class="cls-2" d="M61.68,60s18.95,3,21.11,4.41,3.93,11.35,2.85,15.72-7,22.88-30.57,24.57-23.27,0-34.93-14.43S13.28,18.62,39.58,22.94C69.53,27.36,61.68,60,61.68,60Z" transform="translate(0.78 0.24)"/><path class="cls-6" d="M15.4,35.47,0,39.57,9.72,52.94s-.17-6.4,1.06-9.32A73.44,73.44,0,0,1,15.4,35.47Z" transform="translate(0.78 0.24)"/><path class="cls-7" d="M44,72.94,60.7,75.41S57.82,86.18,53.32,86C44.89,84.7,44,72.94,44,72.94Z" transform="translate(0.78 0.24)"/><circle class="cls-4" cx="31.89" cy="42.61" r="2.24"/><line class="cls-5" x1="49.95" y1="104.1" x2="52.05" y2="111.74"/><line class="cls-8" x1="157.88" y1="106.99" x2="162.79" y2="100.56"/><path class="cls-2" d="M177.36,60.08s17.14,2,19.14,3.14,4,10,3.18,14-5.44,20.84-26.51,23.29-20.92.92-32-11.6-9-64.17,14.83-61.32C183.13,30.4,177.36,60.08,177.36,60.08Z" transform="translate(0.78 0.24)"/><path class="cls-9" d="M131.15,38.72,121,44l8.81,8s-1.07-4.54-.65-6.81A55.89,55.89,0,0,1,131.15,38.72Z" transform="translate(0.78 0.24)"/><path class="cls-9" d="M162,72.37l15.07,1.56s-2.17,9.8-6.22,9.77C163.23,82.91,162,72.37,162,72.37Z" transform="translate(0.78 0.24)"/><circle class="cls-4" cx="149.97" cy="45.63" r="2.01"/><line class="cls-8" x1="168.61" y1="100.2" x2="170.8" y2="106.98"/><ellipse class="cls-4" cx="359.71" cy="105" rx="2.84" ry="1.92" transform="translate(138.69 407.26) rotate(-69.98)"/><ellipse class="cls-4" cx="374.47" cy="104.1" rx="2.25" ry="1.54" transform="translate(-13.3 113.9) rotate(-16.95)"/><ellipse class="cls-4" cx="387.26" cy="102.59" rx="2.8" ry="2.45"/><path class="cls-10" d="M56,11.83c.52-2.95-.81-5.65-3-6a3.33,3.33,0,0,0-2.52.65c.08-3.19-1.82-6-4.35-6.4S40.63,1.7,39.71,4.89a3.26,3.26,0,0,0-1.48-.69c-2.16-.37-4.3,1.58-4.79,4.36a5.2,5.2,0,0,0,1.84,5.25c-.25,2-.75,6.58-.38,7.31l14.83,2.79s2-4.93,2.61-7.46C54.05,16.06,55.57,14.23,56,11.83Z" transform="translate(0.78 0.24)"/><path class="cls-11" d="M37.64,14.27a3.28,3.28,0,0,1-1.17,0c-2.15-.38-3.51-2.94-3-5.73s2.63-4.73,4.79-4.36a3.4,3.4,0,0,1,2.13,1.37" transform="translate(0.78 0.24)"/><path class="cls-12" d="M50,6.89a3.53,3.53,0,0,1,3-1.08c2.16.37,3.49,3.07,3,6s-2.67,5-4.83,4.66a3.07,3.07,0,0,1-1.52-.75" transform="translate(0.78 0.24)"/><path class="cls-11" d="M39.43,7.52a7,7,0,0,1,.09-1.82c.63-3.64,3.8-6.13,6.62-5.64S51,4,50.38,7.58a6.58,6.58,0,0,1-.15.67" transform="translate(0.78 0.24)"/><path class="cls-4" d="M37.64,14.27A3.12,3.12,0,0,1,35.4,14a4.11,4.11,0,0,1-1.62-1.66,6.14,6.14,0,0,1-.4-4.55,5.39,5.39,0,0,1,2.89-3.53,3.25,3.25,0,0,1,4.09,1.29,3.24,3.24,0,0,0-3.94-1,5.1,5.1,0,0,0-2.58,3.32,5.94,5.94,0,0,0,.27,4.25A3.42,3.42,0,0,0,37.64,14.27Z" transform="translate(0.78 0.24)"/><path class="cls-13" d="M50,6.89a3.53,3.53,0,0,1,3-1.08c2.16.37,3.49,3.07,3,6s-2.67,5-4.83,4.66a3.07,3.07,0,0,1-1.52-.75" transform="translate(0.78 0.24)"/><path class="cls-4" d="M50,6.89a3.85,3.85,0,0,1,2.17-1.22,3.14,3.14,0,0,1,2.44.69A4.55,4.55,0,0,1,56,8.5,6.79,6.79,0,0,1,56.32,11a6.86,6.86,0,0,1-2.07,4.57,4,4,0,0,1-2.32,1,3,3,0,0,1-2.3-.9,3,3,0,0,0,2.28.66A3.61,3.61,0,0,0,54,15.33,6.64,6.64,0,0,0,55.84,11a5.37,5.37,0,0,0-1.5-4.36,2.86,2.86,0,0,0-2.17-.74A4,4,0,0,0,50,6.89Z" transform="translate(0.78 0.24)"/><path class="cls-13" d="M39.43,7.52a7,7,0,0,1,.09-1.82c.63-3.64,3.8-6.13,6.62-5.64S51,4,50.38,7.58a6.58,6.58,0,0,1-.15.67" transform="translate(0.78 0.24)"/><path class="cls-4" d="M39.43,7.52a7.27,7.27,0,0,1,1.36-5.18A6,6,0,0,1,45.55-.23a4.65,4.65,0,0,1,2.63,1A6,6,0,0,1,49.9,2.9a7.3,7.3,0,0,1,.33,5.35,7.76,7.76,0,0,0-.66-5.18,5.94,5.94,0,0,0-1.66-2A4.18,4.18,0,0,0,45.53.25a5.63,5.63,0,0,0-4.44,2.32A7.69,7.69,0,0,0,39.43,7.52Z" transform="translate(0.78 0.24)"/><line class="cls-13" x1="41.46" y1="13.54" x2="40.48" y2="22.24"/><path class="cls-4" d="M40.69,13.31l-.38,4.36A28.84,28.84,0,0,1,39.72,22h0a29.08,29.08,0,0,1,.38-4.37l.6-4.34Z" transform="translate(0.78 0.24)"/><line class="cls-13" x1="46.91" y1="14.49" x2="44.85" y2="23.29"/><path class="cls-4" d="M46.14,14.26l-.92,4.42a28.65,28.65,0,0,1-1.14,4.37h0A30,30,0,0,1,45,18.62l1.14-4.37Z" transform="translate(0.78 0.24)"/><path class="cls-10" d="M33.8,20.93s.27,3.46.27,3.84a39.63,39.63,0,0,1,7.61.66c3.18.72,8,2.05,8,2.05s1-3.41,1.11-3.59-5.07-2.55-8.55-3.12A34.27,34.27,0,0,0,33.8,20.93Z" transform="translate(0.78 0.24)"/><path class="cls-10" d="M173.27,14.62c.51-2.95-.82-5.65-3-6a3.34,3.34,0,0,0-2.52.65c.09-3.19-1.82-6-4.34-6.4S157.92,4.49,157,7.68A3.26,3.26,0,0,0,155.51,7c-2.16-.37-4.3,1.58-4.78,4.37a5.15,5.15,0,0,0,1.84,5.24c-.25,2.06-.75,6.58-.39,7.32L167,26.7s1.95-4.93,2.6-7.46C171.34,18.85,172.85,17,173.27,14.62Z" transform="translate(0.78 0.24)"/><path class="cls-11" d="M154.92,17.06a3,3,0,0,1-1.16,0c-2.16-.38-3.52-2.94-3-5.72s2.62-4.74,4.78-4.37a3.4,3.4,0,0,1,2.13,1.37" transform="translate(0.78 0.24)"/><path class="cls-12" d="M167.26,9.68a3.51,3.51,0,0,1,3-1.08c2.16.37,3.49,3.07,3,6s-2.68,5-4.84,4.66a3,3,0,0,1-1.51-.75" transform="translate(0.78 0.24)"/><path class="cls-11" d="M156.71,10.31a7.49,7.49,0,0,1,.09-1.82c.64-3.64,3.81-6.13,6.63-5.64s4.86,3.89,4.23,7.53c0,.22-.09.45-.15.66" transform="translate(0.78 0.24)"/><path class="cls-4" d="M154.92,17.06a3.13,3.13,0,0,1-2.24-.25,4.11,4.11,0,0,1-1.62-1.66,6.23,6.23,0,0,1-.4-4.55,5.38,5.38,0,0,1,2.89-3.52A3.37,3.37,0,0,1,155.87,7a3.42,3.42,0,0,1,1.77,1.4,3.25,3.25,0,0,0-3.94-.95,5.16,5.16,0,0,0-2.58,3.32,6,6,0,0,0,.27,4.26A3.43,3.43,0,0,0,154.92,17.06Z" transform="translate(0.78 0.24)"/><path class="cls-13" d="M167.26,9.68a3.51,3.51,0,0,1,3-1.08c2.16.37,3.49,3.07,3,6s-2.68,5-4.84,4.66a3,3,0,0,1-1.51-.75" transform="translate(0.78 0.24)"/><path class="cls-4" d="M167.26,9.68a3.82,3.82,0,0,1,2.16-1.22,3.18,3.18,0,0,1,2.44.69,4.53,4.53,0,0,1,1.41,2.14,6.59,6.59,0,0,1,.33,2.53,6.82,6.82,0,0,1-2.07,4.57,4,4,0,0,1-2.32,1,3,3,0,0,1-2.29-.9,3,3,0,0,0,2.27.66,3.67,3.67,0,0,0,2.09-1.07,6.63,6.63,0,0,0,1.84-4.33,5.38,5.38,0,0,0-1.49-4.36,2.9,2.9,0,0,0-2.18-.74A4,4,0,0,0,167.26,9.68Z" transform="translate(0.78 0.24)"/><path class="cls-13" d="M156.71,10.31a7.49,7.49,0,0,1,.09-1.82c.64-3.64,3.81-6.13,6.63-5.64s4.86,3.89,4.23,7.53c0,.22-.09.45-.15.66" transform="translate(0.78 0.24)"/><path class="cls-4" d="M156.71,10.31a7.28,7.28,0,0,1,1.37-5.18,6,6,0,0,1,4.75-2.57,4.62,4.62,0,0,1,2.63,1,6,6,0,0,1,1.72,2.17,7.25,7.25,0,0,1,.33,5.35,7.7,7.7,0,0,0-.66-5.18,6,6,0,0,0-1.65-2A4.23,4.23,0,0,0,162.82,3a5.67,5.67,0,0,0-4.45,2.32A7.75,7.75,0,0,0,156.71,10.31Z" transform="translate(0.78 0.24)"/><line class="cls-13" x1="158.74" y1="16.33" x2="157.77" y2="25.04"/><path class="cls-4" d="M158,16.1l-.38,4.36A27.61,27.61,0,0,1,157,24.8h0a29.06,29.06,0,0,1,.37-4.37l.6-4.34Z" transform="translate(0.78 0.24)"/><line class="cls-13" x1="164.2" y1="17.28" x2="162.14" y2="26.08"/><path class="cls-4" d="M163.43,17.05l-.92,4.42a30.32,30.32,0,0,1-1.14,4.38h0a27.88,27.88,0,0,1,.92-4.43L163.4,17Z" transform="translate(0.78 0.24)"/><path class="cls-10" d="M151.09,23.72s.27,3.47.27,3.84a39.55,39.55,0,0,1,7.6.66c3.19.72,8,2.05,8,2.05s1-3.41,1.11-3.59-5.07-2.55-8.55-3.12A34.21,34.21,0,0,0,151.09,23.72Z" transform="translate(0.78 0.24)"/><path class="cls-10" d="M285.74,14.74c.34-3-1.16-5.58-3.33-5.83a3.33,3.33,0,0,0-2.48.81c-.1-3.19-2.17-5.84-4.72-6.13s-5.4,2-6.13,5.2a3.23,3.23,0,0,0-1.52-.59c-2.18-.25-4.2,1.83-4.51,4.64A5.16,5.16,0,0,0,265.2,18c-.13,2.06-.36,6.6.05,7.32l15,1.89s1.65-5,2.15-7.6C284.07,19.08,285.47,17.17,285.74,14.74Z" transform="translate(0.78 0.24)"/><path class="cls-11" d="M267.58,18.28a3.28,3.28,0,0,1-1.17.09c-2.17-.25-3.68-2.72-3.36-5.53S265.38,8,267.56,8.2a3.46,3.46,0,0,1,2.21,1.23" transform="translate(0.78 0.24)"/><path class="cls-12" d="M279.45,10.18a3.5,3.5,0,0,1,3-1.27c2.17.25,3.67,2.86,3.33,5.83s-2.37,5.19-4.54,5a3.14,3.14,0,0,1-1.57-.66" transform="translate(0.78 0.24)"/><path class="cls-11" d="M269,11.44a8,8,0,0,1,0-1.83c.41-3.67,3.43-6.34,6.27-6s5.09,3.58,4.68,7.25c0,.23-.06.46-.11.68" transform="translate(0.78 0.24)"/><path class="cls-4" d="M267.58,18.28a3.16,3.16,0,0,1-2.26-.12,4.06,4.06,0,0,1-1.71-1.55,6.2,6.2,0,0,1-.68-4.52,5.38,5.38,0,0,1,2.68-3.69,3.25,3.25,0,0,1,4.16,1,3.23,3.23,0,0,0-4-.7,5.09,5.09,0,0,0-2.38,3.46,6,6,0,0,0,.53,4.23A3.42,3.42,0,0,0,267.58,18.28Z" transform="translate(0.78 0.24)"/><path class="cls-13" d="M279.45,10.18a3.5,3.5,0,0,1,3-1.27c2.17.25,3.67,2.86,3.33,5.83s-2.37,5.19-4.54,5a3.14,3.14,0,0,1-1.57-.66" transform="translate(0.78 0.24)"/><path class="cls-4" d="M279.45,10.18a3.76,3.76,0,0,1,2.08-1.35,3.14,3.14,0,0,1,2.48.54,4.48,4.48,0,0,1,1.54,2.05,6.51,6.51,0,0,1,.47,2.51,6.8,6.8,0,0,1-1.79,4.68A3.92,3.92,0,0,1,282,19.79a3.07,3.07,0,0,1-2.35-.76,3,3,0,0,0,2.32.52,3.56,3.56,0,0,0,2-1.2,6.53,6.53,0,0,0,1.58-4.42,5.35,5.35,0,0,0-1.75-4.27,2.89,2.89,0,0,0-2.22-.6A3.86,3.86,0,0,0,279.45,10.18Z" transform="translate(0.78 0.24)"/><path class="cls-13" d="M269,11.44a8,8,0,0,1,0-1.83c.41-3.67,3.43-6.34,6.27-6s5.09,3.58,4.68,7.25c0,.23-.06.46-.11.68" transform="translate(0.78 0.24)"/><path class="cls-4" d="M269,11.44A7.29,7.29,0,0,1,270,6.19a6,6,0,0,1,4.59-2.86,4.69,4.69,0,0,1,2.68.8,5.92,5.92,0,0,1,1.85,2.07,7.27,7.27,0,0,1,.65,5.32,7.73,7.73,0,0,0-1-5.13A6,6,0,0,0,277,4.5a4.21,4.21,0,0,0-2.43-.69,5.71,5.71,0,0,0-4.3,2.58A7.8,7.8,0,0,0,269,11.44Z" transform="translate(0.78 0.24)"/><line class="cls-13" x1="271.33" y1="17.37" x2="270.88" y2="26.12"/><path class="cls-4" d="M270.56,17.14l-.11,4.38a29,29,0,0,1-.34,4.36h0a29.14,29.14,0,0,1,.11-4.38l.34-4.36Z" transform="translate(0.78 0.24)"/><line class="cls-13" x1="276.83" y1="17.99" x2="275.3" y2="26.9"/><path class="cls-4" d="M276.06,17.76l-.65,4.47a29.15,29.15,0,0,1-.87,4.43h0a29,29,0,0,1,.66-4.47l.87-4.44Z" transform="translate(0.78 0.24)"/><path class="cls-10" d="M264.15,25.16s.47,3.44.49,3.82a39.4,39.4,0,0,1,7.64.2c3.22.52,8.09,1.57,8.09,1.57s.77-3.47.89-3.66-5.22-2.24-8.72-2.59A33.81,33.81,0,0,0,264.15,25.16Z" transform="translate(0.78 0.24)"/><path class="cls-13" d="M462,75.64c-.94-.79-2.21-2-3.86-3.55-.24,2-.71,5-1.5,8.9a26.6,26.6,0,0,1-8.19,12.13c-4.17,3.54-8.66,5.36-13.46,5.36a19.48,19.48,0,0,1-14.26-5.75Q414,86.22,412,82.57c-2-3.39-2.92-7.72-2.92-12.92A26.31,26.31,0,0,1,409.7,63l-9.37-14.57a32,32,0,0,1,23.94-12.52c3.31,2.84,7.33,7.64,12.13,14.41L443.49,42a39.72,39.72,0,0,1,14.34,6.45A92.89,92.89,0,0,1,469.4,59.41ZM444.67,45.71,437.74,54a27.22,27.22,0,0,1,2.37,10.47,18.25,18.25,0,0,1-2.6,9.53q-3.08,5.2-7.8,5.2a5.86,5.86,0,0,1-5.2-2.76,9.68,9.68,0,0,1-1.57-5.75,38.85,38.85,0,0,1,6.77-22.28l-6.93-8.9a28.68,28.68,0,0,0-18.27,9.29l6.14,9.61a21.32,21.32,0,0,1,4.88-4,43,43,0,0,0-3.23,16.7,19.58,19.58,0,0,0,5.2,13.7,16.44,16.44,0,0,0,12.92,5.75c5.75,0,10.55-2.52,14.49-7.72a25.91,25.91,0,0,0,5.35-16c0-1.57-.15-3.54-.39-5.82,1.42,1,3.55,2.52,6.46,4.49l4.57-10.09A43.47,43.47,0,0,0,444.67,45.71Zm-9.21,11.65c-3.15,5.67-4.73,11.11-4.57,16.46l.08,2c1.57-.31,2.91-1.81,4.17-4.49A14.63,14.63,0,0,0,436.8,65,25.43,25.43,0,0,0,435.46,57.36Z" transform="translate(0.78 0.24)"/><path class="cls-13" d="M527.13,90.13a38.33,38.33,0,0,0-9.46-5.67c-4.17,10.24-10.86,15.28-20.08,15.28a16.41,16.41,0,0,1-11.58-5,48.51,48.51,0,0,1-6.77-7,15.54,15.54,0,0,1-2.83-9.21,18.89,18.89,0,0,1,5-13,23.26,23.26,0,0,1,12.2-7.24,71.41,71.41,0,0,0-7.48-17.49l18-6.22,4.65,4.57a15.4,15.4,0,0,0,2.2,3.47,53.92,53.92,0,0,1,8.82-.71c1.81,0,3.62.08,5.44.23l4.49,4.57,2.36,18.12c-.63,0-1.58,0-2.76-.08s-2.05-.08-2.68-.08h-1A44.79,44.79,0,0,1,534.77,72ZM510.9,62.48a26.37,26.37,0,0,1-.86-4.33,72.22,72.22,0,0,1,13.7-1.26l-1.5-11.65h-2.52a53.19,53.19,0,0,0-12.84,1.88c-1.33-2.91-2.67-5.82-4.09-8.66l-11.74,4c3.47,7.56,5.75,13.7,6.7,18.59a23.23,23.23,0,0,0-12.52,5.35,15.53,15.53,0,0,0-5.52,12,12.52,12.52,0,0,0,4.1,9.53,13.65,13.65,0,0,0,9.76,3.86,15.4,15.4,0,0,0,11.35-5A25.37,25.37,0,0,0,511,75.71a63,63,0,0,1,10.08,4.57l5-11.73A65.66,65.66,0,0,0,510.9,62.48Zm-13.54,15.2c-.87,1.58-1.82,2.29-2.84,2.29-1.34,0-2-.71-2-2.13,0-2,2.05-3.23,6.14-3.86A13.15,13.15,0,0,1,497.36,77.68Z" transform="translate(0.78 0.24)"/><path class="cls-13" d="M576.05,98.4q-9.45,0-16.06-4-4.38-2.59-12.53-10.87a23,23,0,0,1-3-3.31l11.66-16.46,4.64,4.49c1.58,4.89,5.12,7.25,10.79,7.25a15.83,15.83,0,0,0,13.79-7.25c3.22,2.6,6.53,5.12,9.84,7.64,3.62,3,6.77,5.75,9.29,8.27C597.55,93.67,588.1,98.4,576.05,98.4Zm9.77-25.6a18.13,18.13,0,0,1-13.39,5.75c-7.25,0-12.76-2.84-16.7-8.66l-7,10.24a31.59,31.59,0,0,0,46.63.07Zm1.42-9.92a43.73,43.73,0,0,0-19.93-5,49.21,49.21,0,0,0-7.64.63L555,54l5.68-18h1.1a63.58,63.58,0,0,1,27.64,6.22l4.65,4.65ZM564.87,39.33h-1.73L559.51,50.2c1.34-.08,2.68-.16,4-.16A44.43,44.43,0,0,1,581.09,54l4.1-10A51,51,0,0,0,564.87,39.33Z" transform="translate(0.78 0.24)"/><path class="cls-13" d="M625.1,64.7A14,14,0,0,1,617,56.2c-2.07-5.65-3.27-9.91-3.46-12.72-.4-3.93.44-8.19,2.42-12.91a29.34,29.34,0,0,1,10.29-12.93c5.3-3.68,10.51-4.48,15.66-2.32a14.28,14.28,0,0,1,7,5.92c.57,1.09,1.72,4.05,3.48,8.81L640.9,41.27a13.54,13.54,0,0,0-.9-4c-.81-2.13-1.64-3.42-2.66-3.85s-2.56.21-4.2,2.09a19.2,19.2,0,0,0-3.13,5c-1.49,3.56-1.64,5.55-.4,6.07a3,3,0,0,0,2.59-.28L635,44.66c1.35,3.3,3.07,9.58,5,18.76A15.24,15.24,0,0,1,625.1,64.7Zm8.1-16.07a5.18,5.18,0,0,1-4.85.36q-3.71-1.56-3.93-6.52a17.77,17.77,0,0,1,1.51-8.08A17.3,17.3,0,0,1,630.34,28c2.36-2.17,4.68-2.82,7-1.85A5.91,5.91,0,0,1,640.92,31l6.59-6.55a12.38,12.38,0,0,0-6.84-6.71c-4.36-1.83-8.89-1-13.5,2.45a27.2,27.2,0,0,0-8.9,11.47,25.46,25.46,0,0,0-1.86,14.42q1.4,8.28,8.15,11.11a13,13,0,0,0,10.52,0Z" transform="translate(0.78 0.24)"/><path class="cls-13" d="M667.51,82.48l-21.28-8.92-2-5.12A176.08,176.08,0,0,1,652,45.85a179.32,179.32,0,0,1,10.64-21.5l12,5,2.1,5a85.64,85.64,0,0,0-5.46,10.18,12.24,12.24,0,0,1,4.37,5.25,73,73,0,0,1,3.19,8.68c.26,2.24-.36,5.14-1.88,8.78A56.42,56.42,0,0,1,667.51,82.48Zm6.13-25a11.06,11.06,0,0,0-.28-6.27,7.71,7.71,0,0,0-4.15-4.55,8.8,8.8,0,0,0-6.36-.11,128.82,128.82,0,0,1,8-15.78l-6.9-2.9A163.47,163.47,0,0,0,654.48,47a165,165,0,0,0-7,19.95l7.12,3a128.68,128.68,0,0,1,5.31-16.14c1.66-1.1,3.08-1.44,4.1-1s1.35,1.25,1.45,2.65a7.21,7.21,0,0,1-.54,3.11,60.12,60.12,0,0,1-7.42,12.6l7.19,3a58.41,58.41,0,0,0,7.48-12.75C672.75,60,673.23,58.66,673.64,57.47Z" transform="translate(0.78 0.24)"/><path class="cls-13" d="M690.39,92.07A13.27,13.27,0,0,1,683,84.52c-.65-1.3-1.53-3.46-2.57-6.29-1.08-3.53-.61-7.51,1.22-11.87a17.33,17.33,0,0,1,7.87-9,14.06,14.06,0,0,1,17.66,4.33c.51.81,1.56,3.22,3.27,7.27a11.38,11.38,0,0,1-8.12,15.29l2.17,8.68C699.1,94.1,694.46,93.78,690.39,92.07Zm15-27.86A11.24,11.24,0,0,0,690.51,60a15,15,0,0,0-6.35,7.59A15.35,15.35,0,0,0,683,77.28a10,10,0,0,0,6.33,7.1,19.24,19.24,0,0,0,9.58,1.19l-1.75-7.22a8.22,8.22,0,0,1-4.53-.62c-1.81-.76-2.77-1.93-2.85-3.58a10.54,10.54,0,0,0,2.42,1.35,12.25,12.25,0,0,0,8.14.76,8.13,8.13,0,0,0,5.48-5.13A7.64,7.64,0,0,0,705.4,64.21Zm-9.32,4.72a6.25,6.25,0,0,1-2.29-1.48,4.21,4.21,0,0,1,4.53-.4.89.89,0,0,1,.58,1.26C698.47,69.33,697.53,69.53,696.08,68.93Z" transform="translate(0.78 0.24)"/><path class="cls-13" d="M740.57,81.34l-.71-1.75L735.79,90.1,731.48,88l-.91,2.18a71.5,71.5,0,0,0-5.1,16.65l-12-5.62-2.17-5a80.55,80.55,0,0,1,4.42-15.65l-1.22-3,4.73-12.11c.79.16,2,.5,3.7.95.67-1.17,1.79-2.83,3.41-5.06a15.21,15.21,0,0,1,6.39-4.66,10.18,10.18,0,0,1,7.87,0,13.89,13.89,0,0,1,6.46,5.78c.68,1.22,1.85,3.93,3.61,8.09a16.29,16.29,0,0,1,1.1,4.72Zm3.54-18.41a12.25,12.25,0,0,0-4.71-3.85c-4.94-2.07-10.07,1.41-15.25,10.51-.76-.23-1.84-.51-3.2-.91l-2.74,7.13a15.2,15.2,0,0,0,2.37.66c-.5,1-1,2.07-1.38,3.09a70.91,70.91,0,0,0-4.65,15l6.85,3.21a108.64,108.64,0,0,1,5.21-15.67c.42-1,.82-2,1.29-2.87.43.18,1.13.56,2.14,1a14.36,14.36,0,0,0,2.12,1l2.71-7.06a27.77,27.77,0,0,1-3.51-1.81c2.1-4,4.14-5.61,6.18-4.76,1.45.61,2.54,2.09,3.11,4.38l6.06-3.44A15.85,15.85,0,0,0,744.11,62.93Z" transform="translate(0.78 0.24)"/></svg>