<svg id="レイヤー_2" data-name="レイヤー 2" xmlns="http://www.w3.org/2000/svg" viewBox="0 0 752.56 112.12"><defs><style>.cls-1,.cls-11,.cls-5,.cls-8{fill:none;}.cls-1,.cls-10,.cls-11,.cls-12,.cls-3,.cls-5,.cls-6,.cls-7,.cls-8,.cls-9{stroke:#231815;stroke-miterlimit:10;}.cls-1,.cls-5,.cls-8{stroke-linecap:round;}.cls-1,.cls-3{stroke-width:0.7px;}.cls-2{fill:#f8f399;}.cls-3,.cls-6,.cls-7,.cls-9{fill:#f8b62d;}.cls-4{fill:#231815;}.cls-5,.cls-7{stroke-width:0.76px;}.cls-6{stroke-width:0.94px;}.cls-8,.cls-9{stroke-width:0.68px;}.cls-10,.cls-12,.cls-13{fill:#fff;}.cls-10{stroke-width:0.29px;}.cls-11,.cls-12{stroke-width:0.1px;}</style></defs><line class="cls-1" x1="280.33" y1="108.74" x2="284.68" y2="101.63"/><path class="cls-2" d="M353.8,300.4s17.78.2,19.95,1.19,5.14,9.88,4.75,14-3.36,21.93-24.7,26.67-21.34,3.16-34-8.49-16-64.81,8.69-64.41C356.57,269.38,353.8,300.4,353.8,300.4Z" transform="translate(-57.66 -241.65)"/><path class="cls-3" d="M306.78,279.46,296.9,286l9.88,7.31s-1.58-4.54-1.39-6.91A57.55,57.55,0,0,1,306.78,279.46Z" transform="translate(-57.66 -241.65)"/><path class="cls-3" d="M339.38,314.63H355s-1.18,10.27-5.33,10.67C341.75,325.3,339.38,314.63,339.38,314.63Z" transform="translate(-57.66 -241.65)"/><circle class="cls-4" cx="265.71" cy="46.7" r="2.07"/><line class="cls-1" x1="290.61" y1="100.64" x2="293.57" y2="107.36"/><line class="cls-5" x1="37.71" y1="111.13" x2="43.47" y2="104.22"/><path class="cls-2" d="M120.12,301.92s18.95,3,21.12,4.41,3.92,11.36,2.84,15.72-7,22.88-30.57,24.58-23.27,0-34.93-14.43S71.73,260.5,98,264.82C128,269.24,120.12,301.92,120.12,301.92Z" transform="translate(-57.66 -241.65)"/><path class="cls-6" d="M73.84,277.35l-15.4,4.1,9.72,13.37s-.17-6.4,1.06-9.31A75.66,75.66,0,0,1,73.84,277.35Z" transform="translate(-57.66 -241.65)"/><path class="cls-7" d="M102.49,314.83l16.66,2.46s-2.89,10.78-7.38,10.55C103.33,326.59,102.49,314.83,102.49,314.83Z" transform="translate(-57.66 -241.65)"/><circle class="cls-4" cx="31.89" cy="42.61" r="2.24"/><line class="cls-5" x1="49.95" y1="104.1" x2="52.05" y2="111.74"/><line class="cls-8" x1="157.88" y1="106.99" x2="162.79" y2="100.56"/><path class="cls-2" d="M235.8,302s17.15,2,19.15,3.14,4,10,3.17,14S252.69,340,231.61,342.4s-20.92.92-32-11.6-9-64.17,14.83-61.32C241.57,272.28,235.8,302,235.8,302Z" transform="translate(-57.66 -241.65)"/><path class="cls-9" d="M189.59,280.6l-10.19,5.31,8.81,8s-1.07-4.55-.64-6.82A54.53,54.53,0,0,1,189.59,280.6Z" transform="translate(-57.66 -241.65)"/><path class="cls-9" d="M220.45,314.25l15.07,1.56s-2.17,9.8-6.22,9.77C221.67,324.79,220.45,314.25,220.45,314.25Z" transform="translate(-57.66 -241.65)"/><circle class="cls-4" cx="149.97" cy="45.63" r="2.01"/><line class="cls-8" x1="168.61" y1="100.2" x2="170.8" y2="106.98"/><ellipse class="cls-4" cx="418.15" cy="346.88" rx="2.84" ry="1.92" transform="translate(-108.59 379.36) rotate(-69.98)"/><ellipse class="cls-4" cx="432.92" cy="345.99" rx="2.25" ry="1.54" transform="translate(-139.71 -100.44) rotate(-16.95)"/><ellipse class="cls-4" cx="387.26" cy="102.59" rx="2.8" ry="2.45"/><path class="cls-10" d="M114.43,253.71c.51-3-.82-5.64-3-6a3.31,3.31,0,0,0-2.52.66c.09-3.19-1.82-6-4.34-6.4s-5.51,1.63-6.44,4.82a3.14,3.14,0,0,0-1.48-.68c-2.16-.38-4.3,1.57-4.78,4.36a5.17,5.17,0,0,0,1.84,5.25c-.25,2.05-.76,6.57-.39,7.31l14.84,2.79s1.95-4.93,2.6-7.46C112.5,257.94,114,256.11,114.43,253.71Z" transform="translate(-57.66 -241.65)"/><path class="cls-11" d="M96.08,256.15a3,3,0,0,1-1.16,0c-2.16-.38-3.52-2.94-3-5.72s2.62-4.74,4.78-4.36a3.38,3.38,0,0,1,2.13,1.36" transform="translate(-57.66 -241.65)"/><path class="cls-12" d="M108.42,248.78a3.49,3.49,0,0,1,3-1.09c2.16.38,3.49,3.07,3,6s-2.68,5-4.84,4.66a3.07,3.07,0,0,1-1.51-.74" transform="translate(-57.66 -241.65)"/><path class="cls-11" d="M97.87,249.41a7.55,7.55,0,0,1,.09-1.83c.63-3.64,3.81-6.12,6.63-5.63s4.86,3.88,4.23,7.52c0,.23-.09.45-.15.67" transform="translate(-57.66 -241.65)"/><path class="cls-4" d="M96.08,256.15a3.13,3.13,0,0,1-2.24-.25,4.09,4.09,0,0,1-1.62-1.65,6.26,6.26,0,0,1-.4-4.56,5.38,5.38,0,0,1,2.89-3.52,3.37,3.37,0,0,1,2.32-.12,3.47,3.47,0,0,1,1.77,1.4,3.24,3.24,0,0,0-3.94-.94,5.12,5.12,0,0,0-2.58,3.32,6,6,0,0,0,.27,4.25A3.42,3.42,0,0,0,96.08,256.15Z" transform="translate(-57.66 -241.65)"/><path class="cls-13" d="M108.42,248.78a3.49,3.49,0,0,1,3-1.09c2.16.38,3.49,3.07,3,6s-2.68,5-4.84,4.66a3.07,3.07,0,0,1-1.51-.74" transform="translate(-57.66 -241.65)"/><path class="cls-4" d="M108.42,248.78a3.78,3.78,0,0,1,2.16-1.23,3.18,3.18,0,0,1,2.44.69,4.53,4.53,0,0,1,1.41,2.14,6.93,6.93,0,0,1-1.74,7.1,4,4,0,0,1-2.32,1,3,3,0,0,1-2.29-.89,3,3,0,0,0,2.27.65,3.61,3.61,0,0,0,2.09-1.07,6.63,6.63,0,0,0,1.84-4.32,5.39,5.39,0,0,0-1.49-4.37,2.89,2.89,0,0,0-2.18-.73A3.82,3.82,0,0,0,108.42,248.78Z" transform="translate(-57.66 -241.65)"/><path class="cls-13" d="M97.87,249.41a7.55,7.55,0,0,1,.09-1.83c.63-3.64,3.81-6.12,6.63-5.63s4.86,3.88,4.23,7.52c0,.23-.09.45-.15.67" transform="translate(-57.66 -241.65)"/><path class="cls-4" d="M97.87,249.41a7.21,7.21,0,0,1,1.37-5.18,6,6,0,0,1,4.75-2.58,4.62,4.62,0,0,1,2.63,1,6,6,0,0,1,1.72,2.18,7.24,7.24,0,0,1,.33,5.35A7.73,7.73,0,0,0,108,245a6.24,6.24,0,0,0-1.65-2,4.23,4.23,0,0,0-2.38-.83,5.67,5.67,0,0,0-4.45,2.32A7.76,7.76,0,0,0,97.87,249.41Z" transform="translate(-57.66 -241.65)"/><line class="cls-13" x1="41.46" y1="13.54" x2="40.48" y2="22.24"/><path class="cls-4" d="M99.13,255.19l-.38,4.37a27.65,27.65,0,0,1-.59,4.33h0a27.59,27.59,0,0,1,.37-4.36l.6-4.34Z" transform="translate(-57.66 -241.65)"/><line class="cls-13" x1="46.91" y1="14.49" x2="44.85" y2="23.29"/><path class="cls-4" d="M104.59,256.14l-.92,4.43a30.19,30.19,0,0,1-1.14,4.37h0a27.76,27.76,0,0,1,.92-4.42l1.13-4.38Z" transform="translate(-57.66 -241.65)"/><path class="cls-10" d="M92.25,262.82s.27,3.46.26,3.83a39.63,39.63,0,0,1,7.61.66c3.19.72,8,2.06,8,2.06s1-3.41,1.11-3.6-5.07-2.55-8.55-3.11A33.68,33.68,0,0,0,92.25,262.82Z" transform="translate(-57.66 -241.65)"/><path class="cls-10" d="M231.71,256.5c.51-2.95-.82-5.64-3-6a3.29,3.29,0,0,0-2.52.66c.08-3.19-1.83-6-4.35-6.4s-5.51,1.63-6.44,4.82a3.1,3.1,0,0,0-1.48-.68c-2.15-.38-4.29,1.58-4.78,4.36a5.17,5.17,0,0,0,1.84,5.25c-.25,2.05-.75,6.57-.38,7.31l14.83,2.79s1.95-4.93,2.61-7.46C229.78,260.74,231.29,258.91,231.71,256.5Z" transform="translate(-57.66 -241.65)"/><path class="cls-11" d="M213.37,258.94a3.07,3.07,0,0,1-1.17,0c-2.16-.37-3.51-2.94-3-5.72s2.63-4.74,4.78-4.36a3.38,3.38,0,0,1,2.13,1.36" transform="translate(-57.66 -241.65)"/><path class="cls-12" d="M225.7,251.57a3.54,3.54,0,0,1,3-1.09c2.15.38,3.48,3.07,3,6s-2.68,5-4.83,4.66a3.1,3.1,0,0,1-1.52-.74" transform="translate(-57.66 -241.65)"/><path class="cls-11" d="M215.15,252.2a7.56,7.56,0,0,1,.1-1.83c.63-3.64,3.8-6.12,6.62-5.63s4.87,3.88,4.23,7.52c0,.23-.08.45-.14.67" transform="translate(-57.66 -241.65)"/><path class="cls-4" d="M213.37,258.94a3.07,3.07,0,0,1-2.24-.25,4,4,0,0,1-1.62-1.65,6.22,6.22,0,0,1-.41-4.56A5.43,5.43,0,0,1,212,249a3.38,3.38,0,0,1,2.32-.12,3.43,3.43,0,0,1,1.77,1.4,3.23,3.23,0,0,0-3.94-.94,5.14,5.14,0,0,0-2.58,3.32,6,6,0,0,0,.27,4.25A3.42,3.42,0,0,0,213.37,258.94Z" transform="translate(-57.66 -241.65)"/><path class="cls-13" d="M225.7,251.57a3.54,3.54,0,0,1,3-1.09c2.15.38,3.48,3.07,3,6s-2.68,5-4.83,4.66a3.1,3.1,0,0,1-1.52-.74" transform="translate(-57.66 -241.65)"/><path class="cls-4" d="M225.7,251.57a3.83,3.83,0,0,1,2.17-1.23,3.2,3.2,0,0,1,2.44.69,4.6,4.6,0,0,1,1.41,2.14,6.63,6.63,0,0,1,.32,2.54,6.75,6.75,0,0,1-2.07,4.56,4,4,0,0,1-2.31,1,3,3,0,0,1-2.3-.89,3.07,3.07,0,0,0,2.28.66,3.69,3.69,0,0,0,2.08-1.08,6.58,6.58,0,0,0,1.84-4.32,5.37,5.37,0,0,0-1.49-4.37,2.93,2.93,0,0,0-2.18-.73A3.82,3.82,0,0,0,225.7,251.57Z" transform="translate(-57.66 -241.65)"/><path class="cls-13" d="M215.15,252.2a7.56,7.56,0,0,1,.1-1.83c.63-3.64,3.8-6.12,6.62-5.63s4.87,3.88,4.23,7.52c0,.23-.08.45-.14.67" transform="translate(-57.66 -241.65)"/><path class="cls-4" d="M215.15,252.2a7.31,7.31,0,0,1,1.37-5.18,6,6,0,0,1,4.75-2.58,4.63,4.63,0,0,1,2.63,1,5.77,5.77,0,0,1,1.72,2.17,7.25,7.25,0,0,1,.34,5.35,7.74,7.74,0,0,0-.67-5.19,6,6,0,0,0-1.65-2,4.17,4.17,0,0,0-2.38-.84,5.67,5.67,0,0,0-4.45,2.32A7.81,7.81,0,0,0,215.15,252.2Z" transform="translate(-57.66 -241.65)"/><line class="cls-13" x1="158.74" y1="16.33" x2="157.77" y2="25.04"/><path class="cls-4" d="M216.41,258l-.37,4.37a28,28,0,0,1-.6,4.34h0a28.83,28.83,0,0,1,.38-4.36l.59-4.34Z" transform="translate(-57.66 -241.65)"/><line class="cls-13" x1="164.2" y1="17.28" x2="162.14" y2="26.08"/><path class="cls-4" d="M221.87,258.93l-.92,4.43a29,29,0,0,1-1.14,4.37h0a30.16,30.16,0,0,1,.92-4.42l1.14-4.38Z" transform="translate(-57.66 -241.65)"/><path class="cls-10" d="M209.53,265.61s.27,3.46.27,3.83a39.68,39.68,0,0,1,7.61.66c3.18.72,8,2.06,8,2.06s1-3.41,1.11-3.6-5.07-2.55-8.56-3.11A33.68,33.68,0,0,0,209.53,265.61Z" transform="translate(-57.66 -241.65)"/><path class="cls-10" d="M344.18,256.63c.34-3-1.15-5.59-3.33-5.83a3.29,3.29,0,0,0-2.47.8c-.11-3.19-2.18-5.84-4.73-6.13s-5.4,2-6.13,5.21a3.11,3.11,0,0,0-1.52-.6c-2.17-.24-4.19,1.83-4.51,4.64a5.18,5.18,0,0,0,2.15,5.13c-.13,2.06-.36,6.61.06,7.32l15,1.9s1.65-5,2.15-7.61C342.51,261,343.91,259.05,344.18,256.63Z" transform="translate(-57.66 -241.65)"/><path class="cls-11" d="M326,260.16a3.07,3.07,0,0,1-1.17.09c-2.17-.24-3.68-2.72-3.36-5.53s2.34-4.88,4.51-4.64a3.38,3.38,0,0,1,2.21,1.24" transform="translate(-57.66 -241.65)"/><path class="cls-12" d="M337.89,252.06a3.5,3.5,0,0,1,3-1.26c2.18.24,3.67,2.85,3.33,5.83s-2.37,5.18-4.54,4.94a3.18,3.18,0,0,1-1.56-.65" transform="translate(-57.66 -241.65)"/><path class="cls-11" d="M327.4,253.32a7.45,7.45,0,0,1,0-1.83c.41-3.67,3.43-6.34,6.27-6s5.1,3.59,4.68,7.26c0,.23-.06.45-.1.67" transform="translate(-57.66 -241.65)"/><path class="cls-4" d="M326,260.16a3.08,3.08,0,0,1-2.25-.11,4,4,0,0,1-1.72-1.56,6.15,6.15,0,0,1-.67-4.52,5.36,5.36,0,0,1,2.67-3.69,3.4,3.4,0,0,1,2.3-.26,3.45,3.45,0,0,1,1.86,1.3,3.22,3.22,0,0,0-4-.71,5.15,5.15,0,0,0-2.38,3.47,6,6,0,0,0,.53,4.23A3.41,3.41,0,0,0,326,260.16Z" transform="translate(-57.66 -241.65)"/><path class="cls-13" d="M337.89,252.06a3.5,3.5,0,0,1,3-1.26c2.18.24,3.67,2.85,3.33,5.83s-2.37,5.18-4.54,4.94a3.18,3.18,0,0,1-1.56-.65" transform="translate(-57.66 -241.65)"/><path class="cls-4" d="M337.89,252.06a3.81,3.81,0,0,1,2.09-1.35,3.17,3.17,0,0,1,2.47.54A4.58,4.58,0,0,1,344,253.3a6.92,6.92,0,0,1-1.32,7.19,3.9,3.9,0,0,1-2.24,1.18,3,3,0,0,1-2.35-.75,3.05,3.05,0,0,0,2.31.52,3.7,3.7,0,0,0,2-1.2,6.67,6.67,0,0,0,1.58-4.43,5.36,5.36,0,0,0-1.76-4.26,2.87,2.87,0,0,0-2.21-.61A3.89,3.89,0,0,0,337.89,252.06Z" transform="translate(-57.66 -241.65)"/><path class="cls-13" d="M327.4,253.32a7.45,7.45,0,0,1,0-1.83c.41-3.67,3.43-6.34,6.27-6s5.1,3.59,4.68,7.26c0,.23-.06.45-.1.67" transform="translate(-57.66 -241.65)"/><path class="cls-4" d="M327.4,253.32a7.29,7.29,0,0,1,1.05-5.25,6,6,0,0,1,4.59-2.86,4.62,4.62,0,0,1,2.68.81,5.89,5.89,0,0,1,1.85,2.06,7.28,7.28,0,0,1,.66,5.32,7.73,7.73,0,0,0-1-5.13,5.93,5.93,0,0,0-1.77-1.89,4.18,4.18,0,0,0-2.42-.69,5.66,5.66,0,0,0-4.3,2.59A7.71,7.71,0,0,0,327.4,253.32Z" transform="translate(-57.66 -241.65)"/><line class="cls-13" x1="271.33" y1="17.37" x2="270.88" y2="26.12"/><path class="cls-4" d="M329,259l-.11,4.38a27.87,27.87,0,0,1-.33,4.37h0a27.81,27.81,0,0,1,.12-4.38L329,259Z" transform="translate(-57.66 -241.65)"/><line class="cls-13" x1="276.83" y1="17.99" x2="275.3" y2="26.9"/><path class="cls-4" d="M334.51,259.64l-.66,4.47a29.28,29.28,0,0,1-.87,4.44h0a28,28,0,0,1,.65-4.47l.87-4.43Z" transform="translate(-57.66 -241.65)"/><path class="cls-10" d="M322.59,267.05s.48,3.44.5,3.81a39.3,39.3,0,0,1,7.63.2c3.22.53,8.09,1.57,8.09,1.57s.78-3.46.89-3.65-5.21-2.24-8.72-2.6A34.13,34.13,0,0,0,322.59,267.05Z" transform="translate(-57.66 -241.65)"/><path class="cls-13" d="M520.44,317.52c-.94-.79-2.2-2-3.86-3.54-.23,2-.7,5-1.49,8.9A26.65,26.65,0,0,1,506.9,335c-4.18,3.55-8.67,5.36-13.47,5.36a19.49,19.49,0,0,1-14.26-5.75q-6.74-6.5-8.74-10.16c-2-3.39-2.91-7.72-2.91-12.92a25.76,25.76,0,0,1,.63-6.61l-9.38-14.57a31.94,31.94,0,0,1,24-12.52c3.31,2.83,7.32,7.63,12.13,14.41l7.09-8.35a39.7,39.7,0,0,1,14.33,6.46,91.38,91.38,0,0,1,11.58,10.95Zm-17.32-29.93-6.93,8.27a27.43,27.43,0,0,1,2.36,10.48,18.3,18.3,0,0,1-2.6,9.53q-3.07,5.19-7.8,5.19a5.86,5.86,0,0,1-5.2-2.75,9.72,9.72,0,0,1-1.57-5.75,38.88,38.88,0,0,1,6.77-22.29l-6.93-8.9A28.68,28.68,0,0,0,463,290.66l6.14,9.61a21,21,0,0,1,4.89-4A42.75,42.75,0,0,0,470.75,313a19.58,19.58,0,0,0,5.19,13.71,16.47,16.47,0,0,0,12.92,5.75c5.75,0,10.55-2.53,14.49-7.72a25.9,25.9,0,0,0,5.36-16c0-1.58-.16-3.54-.4-5.83,1.42,1,3.55,2.52,6.46,4.49l4.57-10.08A43.58,43.58,0,0,0,503.12,287.59Zm-9.22,11.66c-3.15,5.67-4.72,11.1-4.57,16.46l.08,2c1.58-.32,2.92-1.81,4.18-4.49a14.78,14.78,0,0,0,1.65-6.3A25.07,25.07,0,0,0,493.9,299.25Z" transform="translate(-57.66 -241.65)"/><path class="cls-13" d="M585.57,332a38.47,38.47,0,0,0-9.45-5.67c-4.18,10.24-10.87,15.28-20.09,15.28a16.36,16.36,0,0,1-11.57-5c-3.63-3.31-5.83-5.59-6.78-7a15.59,15.59,0,0,1-2.83-9.22,18.85,18.85,0,0,1,5-13,23.27,23.27,0,0,1,12.21-7.25,71.6,71.6,0,0,0-7.49-17.48l18-6.22,4.65,4.56a15,15,0,0,0,2.2,3.47,55.14,55.14,0,0,1,8.82-.71c1.82,0,3.63.08,5.44.24l4.49,4.57,2.36,18.11c-.63,0-1.57,0-2.76-.08s-2-.08-2.67-.08h-1a44,44,0,0,1,9.14,7.33Zm-16.23-27.64a26.62,26.62,0,0,1-.86-4.33,72.22,72.22,0,0,1,13.7-1.26l-1.49-11.66h-2.52A53.13,53.13,0,0,0,565.33,289c-1.34-2.92-2.68-5.83-4.1-8.66l-11.73,4c3.46,7.56,5.75,13.71,6.69,18.59a23.2,23.2,0,0,0-12.52,5.36,15.52,15.52,0,0,0-5.51,12.05,12.5,12.5,0,0,0,4.09,9.52,13.69,13.69,0,0,0,9.77,3.86,15.39,15.39,0,0,0,11.34-5,25.33,25.33,0,0,0,6.06-11.1,62.16,62.16,0,0,1,10.08,4.57l5-11.74A66.12,66.12,0,0,0,569.34,304.37Zm-13.54,15.2c-.87,1.57-1.81,2.28-2.84,2.28-1.34,0-2-.71-2-2.12,0-2,2-3.23,6.15-3.86A13.18,13.18,0,0,1,555.8,319.57Z" transform="translate(-57.66 -241.65)"/><path class="cls-13" d="M634.5,340.28q-9.45,0-16.07-4-4.36-2.6-12.52-10.86a22.88,22.88,0,0,1-3-3.31l11.66-16.46,4.65,4.49c1.57,4.88,5.12,7.24,10.79,7.24a15.83,15.83,0,0,0,13.78-7.24c3.23,2.6,6.54,5.12,9.84,7.64,3.63,3,6.78,5.75,9.3,8.27C656,335.56,646.55,340.28,634.5,340.28Zm9.76-25.6a18.13,18.13,0,0,1-13.39,5.75c-7.24,0-12.76-2.83-16.69-8.66l-7,10.24a31.57,31.57,0,0,0,46.62.08Zm1.42-9.92a43.7,43.7,0,0,0-19.93-5,50.47,50.47,0,0,0-7.64.63l-4.64-4.49,5.67-18h1.1a63.6,63.6,0,0,1,27.64,6.23l4.65,4.64Zm-22.37-23.55h-1.73L618,292.08c1.34-.08,2.67-.16,4-.16a44.51,44.51,0,0,1,17.57,3.94l4.09-10A51,51,0,0,0,623.31,281.21Z" transform="translate(-57.66 -241.65)"/><path class="cls-13" d="M683.54,306.58a14,14,0,0,1-8-8.49c-2.07-5.66-3.28-9.92-3.46-12.73-.41-3.93.44-8.18,2.42-12.9a29.17,29.17,0,0,1,10.29-12.94c5.29-3.67,10.5-4.48,15.66-2.32a14.27,14.27,0,0,1,7,5.93c.57,1.09,1.72,4.05,3.49,8.8l-11.54,11.22a12.8,12.8,0,0,0-.9-4c-.81-2.14-1.64-3.43-2.66-3.85s-2.56.2-4.2,2.08a19.21,19.21,0,0,0-3.12,5c-1.5,3.56-1.65,5.54-.41,6.06a2.93,2.93,0,0,0,2.59-.28l2.75-1.66c1.35,3.3,3.08,9.57,5,18.76A15.21,15.21,0,0,1,683.54,306.58Zm8.1-16.07a5.13,5.13,0,0,1-4.84.36c-2.47-1-3.78-3.21-3.93-6.51a17.73,17.73,0,0,1,1.5-8.08,17.26,17.26,0,0,1,4.41-6.44c2.36-2.17,4.68-2.82,7-1.84a5.91,5.91,0,0,1,3.57,4.91l6.59-6.55a12.38,12.38,0,0,0-6.84-6.71c-4.35-1.82-8.89-1-13.49,2.46a27.15,27.15,0,0,0-8.91,11.47A25.54,25.54,0,0,0,674.85,288q1.39,8.26,8.15,11.1a13,13,0,0,0,10.52,0Z" transform="translate(-57.66 -241.65)"/><path class="cls-13" d="M726,324.37l-21.28-8.92-2-5.13a175.5,175.5,0,0,1,7.84-22.59,180.07,180.07,0,0,1,10.64-21.5l12,5,2.1,5a87,87,0,0,0-5.46,10.17,12.11,12.11,0,0,1,4.37,5.25,73.66,73.66,0,0,1,3.2,8.69c.25,2.24-.37,5.14-1.89,8.77A56.22,56.22,0,0,1,726,324.37Zm6.14-25a11.11,11.11,0,0,0-.28-6.26,7.76,7.76,0,0,0-4.15-4.56,8.85,8.85,0,0,0-6.36-.11,129.39,129.39,0,0,1,8-15.78l-6.9-2.89a163.35,163.35,0,0,0-9.46,19.09,165.09,165.09,0,0,0-7,20l7.12,3a128,128,0,0,1,5.31-16.13c1.66-1.1,3.08-1.45,4.1-1,.87.37,1.36,1.25,1.45,2.66a7.31,7.31,0,0,1-.53,3.1A60.36,60.36,0,0,1,716,313l7.19,3a58.34,58.34,0,0,0,7.48-12.75C731.2,301.88,731.67,300.55,732.09,299.35Z" transform="translate(-57.66 -241.65)"/><path class="cls-13" d="M748.83,334a13.25,13.25,0,0,1-7.42-7.55c-.65-1.3-1.54-3.47-2.58-6.29-1.08-3.53-.6-7.52,1.22-11.88a17.28,17.28,0,0,1,7.88-9,14,14,0,0,1,17.65,4.33,78.79,78.79,0,0,1,3.28,7.26,11.4,11.4,0,0,1-8.13,15.3l2.17,8.68C757.54,336,752.9,335.66,748.83,334Zm15-27.87A11.22,11.22,0,0,0,749,301.9a14.83,14.83,0,0,0-6.34,7.59,15.41,15.41,0,0,0-1.16,9.68,10,10,0,0,0,6.34,7.09,19.07,19.07,0,0,0,9.57,1.2l-1.75-7.23a8.17,8.17,0,0,1-4.52-.61c-1.82-.77-2.78-1.94-2.86-3.59a11,11,0,0,0,2.42,1.36,12.38,12.38,0,0,0,8.14.76,8.11,8.11,0,0,0,5.48-5.13A7.63,7.63,0,0,0,763.84,306.09Zm-9.32,4.72a6.37,6.37,0,0,1-2.29-1.47,4.23,4.23,0,0,1,4.53-.41.9.9,0,0,1,.58,1.27C756.91,311.21,756,311.42,754.52,310.81Z" transform="translate(-57.66 -241.65)"/><path class="cls-13" d="M799,323.23l-.72-1.75L794.23,332l-4.3-2.14L789,332a71.28,71.28,0,0,0-5.1,16.64l-12-5.62-2.17-5a80.09,80.09,0,0,1,4.43-15.65l-1.23-3,4.74-12.11c.78.16,2,.51,3.7,1a59.07,59.07,0,0,1,3.4-5.07,15.26,15.26,0,0,1,6.4-4.66,10.18,10.18,0,0,1,7.87,0,14,14,0,0,1,6.46,5.78c.68,1.23,1.85,3.94,3.61,8.09a16.28,16.28,0,0,1,1.09,4.73Zm3.53-18.42a12.3,12.3,0,0,0-4.7-3.85c-4.94-2.07-10.08,1.41-15.26,10.52-.75-.24-1.83-.52-3.2-.92l-2.74,7.14a15.86,15.86,0,0,0,2.38.65c-.5,1-1,2.08-1.39,3.09a71,71,0,0,0-4.64,15l6.85,3.22a107,107,0,0,1,5.2-15.67c.43-1,.82-2,1.29-2.88.44.19,1.13.56,2.15,1a14.13,14.13,0,0,0,2.12,1.06l2.7-7.07a25.91,25.91,0,0,1-3.51-1.81c2.1-4,4.15-5.61,6.18-4.75,1.45.61,2.54,2.09,3.12,4.38l6-3.44A15.65,15.65,0,0,0,802.55,304.81Z" transform="translate(-57.66 -241.65)"/></svg>